<svg width="25" height="18" viewBox="0 0 25 18" fill="none" xmlns="http://www.w3.org/2000/svg">
<path d="M6.25 0.083374L0.423177 4.25004L6.25 8.41671V5.29171H17.7083C20.577 5.29171 22.9167 7.63139 22.9167 10.5C22.9167 13.3687 20.577 15.7084 17.7083 15.7084H12.5V17.7917H17.7083C21.7122 17.7917 25 14.504 25 10.5C25 6.49614 21.7122 3.20837 17.7083 3.20837H6.25V0.083374ZM0 15.7084V17.7917H2.08333V15.7084H0ZM3.125 15.7084V17.7917H5.20833V15.7084H3.125ZM6.25 15.7084V17.7917H8.33333V15.7084H6.25ZM9.375 15.7084V17.7917H11.4583V15.7084H9.375Z" fill="white"/>
</svg>
